<mxfile host="app.diagrams.net" modified="2023-12-31T09:45:41.885Z" agent="Mozilla/5.0 (Windows NT 10.0; Win64; x64) AppleWebKit/537.36 (KHTML, like Gecko) Chrome/120.0.0.0 Safari/537.36" etag="HQTzFIXbuC9u-5Ce4o-Z" version="22.1.16" type="github">
  <diagram name="第 1 页" id="xI6E-1vBhjNvRzEAFzbU">
    <mxGraphModel dx="1050" dy="522" grid="1" gridSize="10" guides="1" tooltips="1" connect="1" arrows="1" fold="1" page="1" pageScale="1" pageWidth="827" pageHeight="1169" math="0" shadow="0">
      <root>
        <mxCell id="0" />
        <mxCell id="1" parent="0" />
        <mxCell id="NX59sS2BTYS4r-8h-B-R-1" value="用戶註冊" style="rounded=0;whiteSpace=wrap;html=1;" vertex="1" parent="1">
          <mxGeometry x="360" y="20" width="120" height="30" as="geometry" />
        </mxCell>
        <mxCell id="NX59sS2BTYS4r-8h-B-R-2" value="火車車次推薦" style="rounded=0;whiteSpace=wrap;html=1;" vertex="1" parent="1">
          <mxGeometry x="360" y="60" width="120" height="30" as="geometry" />
        </mxCell>
        <mxCell id="NX59sS2BTYS4r-8h-B-R-3" value="退票管理" style="rounded=0;whiteSpace=wrap;html=1;" vertex="1" parent="1">
          <mxGeometry x="360" y="460" width="120" height="30" as="geometry" />
        </mxCell>
        <mxCell id="NX59sS2BTYS4r-8h-B-R-4" value="車票改簽" style="rounded=0;whiteSpace=wrap;html=1;" vertex="1" parent="1">
          <mxGeometry x="360" y="140" width="120" height="30" as="geometry" />
        </mxCell>
        <mxCell id="NX59sS2BTYS4r-8h-B-R-5" value="火車票預定" style="rounded=0;whiteSpace=wrap;html=1;" vertex="1" parent="1">
          <mxGeometry x="360" y="100" width="120" height="30" as="geometry" />
        </mxCell>
        <mxCell id="NX59sS2BTYS4r-8h-B-R-6" value="車票退票" style="rounded=0;whiteSpace=wrap;html=1;" vertex="1" parent="1">
          <mxGeometry x="360" y="180" width="120" height="30" as="geometry" />
        </mxCell>
        <mxCell id="NX59sS2BTYS4r-8h-B-R-7" value="個人中心" style="rounded=0;whiteSpace=wrap;html=1;" vertex="1" parent="1">
          <mxGeometry x="360" y="220" width="120" height="30" as="geometry" />
        </mxCell>
        <mxCell id="NX59sS2BTYS4r-8h-B-R-8" value="系統用戶管理" style="rounded=0;whiteSpace=wrap;html=1;" vertex="1" parent="1">
          <mxGeometry x="360" y="260" width="120" height="30" as="geometry" />
        </mxCell>
        <mxCell id="NX59sS2BTYS4r-8h-B-R-9" value="站點管理" style="rounded=0;whiteSpace=wrap;html=1;" vertex="1" parent="1">
          <mxGeometry x="360" y="300" width="120" height="30" as="geometry" />
        </mxCell>
        <mxCell id="NX59sS2BTYS4r-8h-B-R-10" value="改簽管理" style="rounded=0;whiteSpace=wrap;html=1;" vertex="1" parent="1">
          <mxGeometry x="360" y="420" width="120" height="30" as="geometry" />
        </mxCell>
        <mxCell id="NX59sS2BTYS4r-8h-B-R-11" value="火車車次管理" style="rounded=0;whiteSpace=wrap;html=1;" vertex="1" parent="1">
          <mxGeometry x="360" y="340" width="120" height="30" as="geometry" />
        </mxCell>
        <mxCell id="NX59sS2BTYS4r-8h-B-R-12" value="訂票系統" style="rounded=0;whiteSpace=wrap;html=1;" vertex="1" parent="1">
          <mxGeometry x="360" y="380" width="120" height="30" as="geometry" />
        </mxCell>
        <mxCell id="NX59sS2BTYS4r-8h-B-R-14" value="公告欄管理" style="rounded=0;whiteSpace=wrap;html=1;" vertex="1" parent="1">
          <mxGeometry x="360" y="500" width="120" height="30" as="geometry" />
        </mxCell>
        <mxCell id="NX59sS2BTYS4r-8h-B-R-15" value="修改密碼" style="rounded=0;whiteSpace=wrap;html=1;" vertex="1" parent="1">
          <mxGeometry x="560" y="170" width="120" height="30" as="geometry" />
        </mxCell>
        <mxCell id="NX59sS2BTYS4r-8h-B-R-16" value="個人資料管理" style="rounded=0;whiteSpace=wrap;html=1;" vertex="1" parent="1">
          <mxGeometry x="560" y="130" width="120" height="30" as="geometry" />
        </mxCell>
        <mxCell id="NX59sS2BTYS4r-8h-B-R-17" value="車票訂單查詢" style="rounded=0;whiteSpace=wrap;html=1;" vertex="1" parent="1">
          <mxGeometry x="560" y="210" width="120" height="30" as="geometry" />
        </mxCell>
        <mxCell id="NX59sS2BTYS4r-8h-B-R-18" value="普通&lt;br&gt;用戶" style="rounded=0;whiteSpace=wrap;html=1;direction=south;" vertex="1" parent="1">
          <mxGeometry x="240" y="90" width="40" height="100" as="geometry" />
        </mxCell>
        <mxCell id="NX59sS2BTYS4r-8h-B-R-19" value="管理員" style="rounded=0;whiteSpace=wrap;html=1;direction=south;" vertex="1" parent="1">
          <mxGeometry x="240" y="340" width="40" height="100" as="geometry" />
        </mxCell>
        <mxCell id="NX59sS2BTYS4r-8h-B-R-20" value="火車票&lt;br&gt;訂票系統" style="rounded=0;whiteSpace=wrap;html=1;direction=south;" vertex="1" parent="1">
          <mxGeometry x="140" y="200" width="60" height="120" as="geometry" />
        </mxCell>
        <mxCell id="NX59sS2BTYS4r-8h-B-R-21" value="" style="endArrow=none;html=1;rounded=0;" edge="1" parent="1">
          <mxGeometry width="50" height="50" relative="1" as="geometry">
            <mxPoint x="200" y="260" as="sourcePoint" />
            <mxPoint x="220" y="260" as="targetPoint" />
          </mxGeometry>
        </mxCell>
        <mxCell id="NX59sS2BTYS4r-8h-B-R-23" value="" style="endArrow=none;html=1;rounded=0;" edge="1" parent="1">
          <mxGeometry width="50" height="50" relative="1" as="geometry">
            <mxPoint x="220" y="389.5" as="sourcePoint" />
            <mxPoint x="240" y="389.5" as="targetPoint" />
          </mxGeometry>
        </mxCell>
        <mxCell id="NX59sS2BTYS4r-8h-B-R-24" value="" style="endArrow=none;html=1;rounded=0;" edge="1" parent="1">
          <mxGeometry width="50" height="50" relative="1" as="geometry">
            <mxPoint x="220" y="139.5" as="sourcePoint" />
            <mxPoint x="240" y="139.5" as="targetPoint" />
          </mxGeometry>
        </mxCell>
        <mxCell id="NX59sS2BTYS4r-8h-B-R-25" value="" style="endArrow=none;html=1;rounded=0;" edge="1" parent="1">
          <mxGeometry width="50" height="50" relative="1" as="geometry">
            <mxPoint x="280" y="139.5" as="sourcePoint" />
            <mxPoint x="320" y="139.5" as="targetPoint" />
          </mxGeometry>
        </mxCell>
        <mxCell id="NX59sS2BTYS4r-8h-B-R-26" value="" style="endArrow=none;html=1;rounded=0;" edge="1" parent="1">
          <mxGeometry width="50" height="50" relative="1" as="geometry">
            <mxPoint x="320" y="34.5" as="sourcePoint" />
            <mxPoint x="360" y="34.5" as="targetPoint" />
          </mxGeometry>
        </mxCell>
        <mxCell id="NX59sS2BTYS4r-8h-B-R-27" value="" style="endArrow=none;html=1;rounded=0;" edge="1" parent="1">
          <mxGeometry width="50" height="50" relative="1" as="geometry">
            <mxPoint x="320" y="74.5" as="sourcePoint" />
            <mxPoint x="360" y="74.5" as="targetPoint" />
          </mxGeometry>
        </mxCell>
        <mxCell id="NX59sS2BTYS4r-8h-B-R-28" value="" style="endArrow=none;html=1;rounded=0;" edge="1" parent="1">
          <mxGeometry width="50" height="50" relative="1" as="geometry">
            <mxPoint x="320" y="114.5" as="sourcePoint" />
            <mxPoint x="360" y="114.5" as="targetPoint" />
          </mxGeometry>
        </mxCell>
        <mxCell id="NX59sS2BTYS4r-8h-B-R-29" value="" style="endArrow=none;html=1;rounded=0;" edge="1" parent="1">
          <mxGeometry width="50" height="50" relative="1" as="geometry">
            <mxPoint x="320" y="154.5" as="sourcePoint" />
            <mxPoint x="360" y="154.5" as="targetPoint" />
          </mxGeometry>
        </mxCell>
        <mxCell id="NX59sS2BTYS4r-8h-B-R-30" value="" style="endArrow=none;html=1;rounded=0;" edge="1" parent="1">
          <mxGeometry width="50" height="50" relative="1" as="geometry">
            <mxPoint x="320" y="234.5" as="sourcePoint" />
            <mxPoint x="360" y="234.5" as="targetPoint" />
          </mxGeometry>
        </mxCell>
        <mxCell id="NX59sS2BTYS4r-8h-B-R-32" value="" style="endArrow=none;html=1;rounded=0;" edge="1" parent="1">
          <mxGeometry width="50" height="50" relative="1" as="geometry">
            <mxPoint x="320" y="194.5" as="sourcePoint" />
            <mxPoint x="360" y="194.5" as="targetPoint" />
          </mxGeometry>
        </mxCell>
        <mxCell id="NX59sS2BTYS4r-8h-B-R-33" value="" style="endArrow=none;html=1;rounded=0;" edge="1" parent="1">
          <mxGeometry width="50" height="50" relative="1" as="geometry">
            <mxPoint x="320" y="274.5" as="sourcePoint" />
            <mxPoint x="360" y="274.5" as="targetPoint" />
          </mxGeometry>
        </mxCell>
        <mxCell id="NX59sS2BTYS4r-8h-B-R-34" value="" style="endArrow=none;html=1;rounded=0;" edge="1" parent="1">
          <mxGeometry width="50" height="50" relative="1" as="geometry">
            <mxPoint x="320" y="314.5" as="sourcePoint" />
            <mxPoint x="360" y="314.5" as="targetPoint" />
          </mxGeometry>
        </mxCell>
        <mxCell id="NX59sS2BTYS4r-8h-B-R-35" value="" style="endArrow=none;html=1;rounded=0;" edge="1" parent="1">
          <mxGeometry width="50" height="50" relative="1" as="geometry">
            <mxPoint x="320" y="354.5" as="sourcePoint" />
            <mxPoint x="360" y="354.5" as="targetPoint" />
          </mxGeometry>
        </mxCell>
        <mxCell id="NX59sS2BTYS4r-8h-B-R-36" value="" style="endArrow=none;html=1;rounded=0;" edge="1" parent="1">
          <mxGeometry width="50" height="50" relative="1" as="geometry">
            <mxPoint x="320" y="394.5" as="sourcePoint" />
            <mxPoint x="360" y="394.5" as="targetPoint" />
          </mxGeometry>
        </mxCell>
        <mxCell id="NX59sS2BTYS4r-8h-B-R-37" value="" style="endArrow=none;html=1;rounded=0;" edge="1" parent="1">
          <mxGeometry width="50" height="50" relative="1" as="geometry">
            <mxPoint x="320" y="434.5" as="sourcePoint" />
            <mxPoint x="360" y="434.5" as="targetPoint" />
          </mxGeometry>
        </mxCell>
        <mxCell id="NX59sS2BTYS4r-8h-B-R-38" value="" style="endArrow=none;html=1;rounded=0;" edge="1" parent="1">
          <mxGeometry width="50" height="50" relative="1" as="geometry">
            <mxPoint x="320" y="474.5" as="sourcePoint" />
            <mxPoint x="360" y="474.5" as="targetPoint" />
          </mxGeometry>
        </mxCell>
        <mxCell id="NX59sS2BTYS4r-8h-B-R-39" value="" style="endArrow=none;html=1;rounded=0;" edge="1" parent="1">
          <mxGeometry width="50" height="50" relative="1" as="geometry">
            <mxPoint x="320" y="514.5" as="sourcePoint" />
            <mxPoint x="360" y="514.5" as="targetPoint" />
          </mxGeometry>
        </mxCell>
        <mxCell id="NX59sS2BTYS4r-8h-B-R-56" value="" style="endArrow=none;html=1;rounded=0;" edge="1" parent="1">
          <mxGeometry width="50" height="50" relative="1" as="geometry">
            <mxPoint x="520" y="144.5" as="sourcePoint" />
            <mxPoint x="560" y="144.5" as="targetPoint" />
          </mxGeometry>
        </mxCell>
        <mxCell id="NX59sS2BTYS4r-8h-B-R-57" value="" style="endArrow=none;html=1;rounded=0;" edge="1" parent="1">
          <mxGeometry width="50" height="50" relative="1" as="geometry">
            <mxPoint x="520" y="184.5" as="sourcePoint" />
            <mxPoint x="560" y="184.5" as="targetPoint" />
          </mxGeometry>
        </mxCell>
        <mxCell id="NX59sS2BTYS4r-8h-B-R-58" value="" style="endArrow=none;html=1;rounded=0;" edge="1" parent="1">
          <mxGeometry width="50" height="50" relative="1" as="geometry">
            <mxPoint x="520" y="224.5" as="sourcePoint" />
            <mxPoint x="560" y="224.5" as="targetPoint" />
          </mxGeometry>
        </mxCell>
        <mxCell id="NX59sS2BTYS4r-8h-B-R-59" value="" style="endArrow=none;html=1;rounded=0;" edge="1" parent="1">
          <mxGeometry width="50" height="50" relative="1" as="geometry">
            <mxPoint x="480" y="234.5" as="sourcePoint" />
            <mxPoint x="520" y="234.5" as="targetPoint" />
          </mxGeometry>
        </mxCell>
        <mxCell id="NX59sS2BTYS4r-8h-B-R-62" value="" style="endArrow=none;html=1;rounded=0;endSize=6;" edge="1" parent="1">
          <mxGeometry width="50" height="50" relative="1" as="geometry">
            <mxPoint x="520" y="235" as="sourcePoint" />
            <mxPoint x="520" y="144" as="targetPoint" />
          </mxGeometry>
        </mxCell>
        <mxCell id="NX59sS2BTYS4r-8h-B-R-63" value="" style="endArrow=none;html=1;rounded=0;endSize=6;" edge="1" parent="1">
          <mxGeometry width="50" height="50" relative="1" as="geometry">
            <mxPoint x="320" y="235" as="sourcePoint" />
            <mxPoint x="320" y="34" as="targetPoint" />
          </mxGeometry>
        </mxCell>
        <mxCell id="NX59sS2BTYS4r-8h-B-R-64" value="" style="endArrow=none;html=1;rounded=0;endSize=6;" edge="1" parent="1">
          <mxGeometry width="50" height="50" relative="1" as="geometry">
            <mxPoint x="320" y="515" as="sourcePoint" />
            <mxPoint x="320" y="274" as="targetPoint" />
          </mxGeometry>
        </mxCell>
        <mxCell id="NX59sS2BTYS4r-8h-B-R-66" value="" style="endArrow=none;html=1;rounded=0;" edge="1" parent="1">
          <mxGeometry width="50" height="50" relative="1" as="geometry">
            <mxPoint x="280" y="389.5" as="sourcePoint" />
            <mxPoint x="320" y="389.5" as="targetPoint" />
          </mxGeometry>
        </mxCell>
        <mxCell id="NX59sS2BTYS4r-8h-B-R-67" value="" style="endArrow=none;html=1;rounded=0;" edge="1" parent="1">
          <mxGeometry width="50" height="50" relative="1" as="geometry">
            <mxPoint x="220" y="390" as="sourcePoint" />
            <mxPoint x="220" y="140" as="targetPoint" />
          </mxGeometry>
        </mxCell>
      </root>
    </mxGraphModel>
  </diagram>
</mxfile>
